<svg width="38" height="38" viewBox="0 0 38 38" fill="none" xmlns="http://www.w3.org/2000/svg">
<path d="M21.0822 24.7878L16.1539 20.4741H2.464C1.10313 20.4741 0 21.4397 0 22.631C0 23.8222 1.10313 24.7878 2.464 24.7878H21.0822Z" fill="white"/>
<path d="M10.6509 32.9997H27.3478C31.5896 32.9997 35.0022 30.2308 35.5397 26.7368H2.45898C2.99562 30.2252 6.40273 32.9997 10.6509 32.9997V32.9997Z" fill="white"/>
<path d="M24.9612 6H13.0369C7.53894 6 3.00203 9.66502 2.44336 14.3502H35.5551C34.9964 9.66502 30.4592 6 24.9612 6V6Z" fill="white"/>
<path d="M28.2368 20.4741H19.3027L23.7698 24.3843L28.2368 20.4741Z" fill="white"/>
<path d="M1.27158 18.5254H36.7284C37.4306 18.5254 38 18.027 38 17.4124C38 16.7975 37.4306 16.2993 36.7284 16.2993H1.27158C0.569397 16.2991 0 16.7975 0 17.4124C0 18.027 0.569397 18.5254 1.27158 18.5254Z" fill="white"/>
<path d="M35.5355 20.4741H31.385L26.457 24.7878H35.5355C36.8964 24.7878 37.9995 23.8222 37.9995 22.631C37.9995 21.4397 36.8964 20.4741 35.5355 20.4741V20.4741Z" fill="white"/>
</svg>
