<svg width="17" height="24" viewBox="0 0 17 24" fill="none" xmlns="http://www.w3.org/2000/svg">
<path d="M16.5984 5.97336C16.5105 5.65318 16.3322 5.31202 16.2002 5.01333C14.6212 1.32266 11.171 0 8.38517 0C4.65582 0 0.548378 2.43206 0 7.44511V8.46931C0 8.51205 0.0151467 8.896 0.0366618 9.08807C0.34407 11.4772 2.28244 14.0162 3.73009 16.4053C5.28756 18.965 6.90366 21.483 8.50479 23.9999C9.49208 22.3574 10.4758 20.6933 11.4406 19.0934C11.7035 18.6238 12.0088 18.1545 12.272 17.7064C12.4475 17.4079 12.7826 17.1095 12.9358 16.8319C14.4932 14.0587 17 11.2641 17 8.51199V7.38139C17.0001 7.08303 16.6198 6.03769 16.5984 5.97336ZM8.45344 11.1148C7.3572 11.1148 6.15729 10.5817 5.56502 9.10944C5.47678 8.87508 5.48389 8.40542 5.48389 8.3624V7.70107C5.48389 5.82421 7.12249 4.9707 8.54799 4.9707C10.3029 4.9707 11.6602 6.33622 11.6602 8.043C11.6602 9.74973 10.2084 11.1148 8.45344 11.1148Z" fill="white"/>
</svg>
