<svg width="38" height="38" viewBox="0 0 38 38" fill="none" xmlns="http://www.w3.org/2000/svg">
<path d="M3.55469 19.9885C3.55469 22.4905 4.21691 24.8457 5.38245 26.9053L17.6092 20.2073L5.19972 13.4087C4.15042 15.3876 3.55469 17.621 3.55469 19.9885ZM7.42568 23.6076C7.03691 23.7819 6.62549 23.8938 6.20962 23.9929C6.02492 24.0373 5.52671 24.1178 5.45249 23.8553C5.37957 23.5967 5.85134 23.4206 6.03539 23.3767C6.33593 23.3047 6.62038 23.23 6.90169 23.1041C7.12566 23.0031 7.5846 22.9144 7.78723 23.1099C8.00322 23.3176 7.57138 23.542 7.42568 23.6076ZM12.7273 19.0675C13.3068 19.0675 13.7766 19.5126 13.7766 20.0626C13.7766 20.6126 13.3069 21.0576 12.7273 21.0576C12.1484 21.0576 11.6784 20.6126 11.6784 20.0626C11.6776 19.5126 12.1477 19.0675 12.7273 19.0675ZM9.83229 20.5623C9.83229 21.3894 9.12635 22.0582 8.25533 22.0582C7.38471 22.0582 6.67798 21.388 6.67798 20.5623C6.67798 19.7365 7.38406 19.0665 8.25533 19.0665C9.12635 19.0665 9.83229 19.7358 9.83229 20.5623ZM6.67798 15.3989C7.25787 15.3989 7.72767 15.8439 7.72767 16.3943C7.72767 16.9442 7.258 17.3892 6.67798 17.3892C6.09914 17.3892 5.62946 16.9442 5.62946 16.3943C5.62946 15.8449 6.09848 15.3989 6.67798 15.3989ZM4.71944 19.7133C3.81937 19.7133 4.83948 19.0946 5.26988 19.0946C6.16995 19.0946 5.14984 19.7133 4.71944 19.7133Z" fill="#EF7A47"/>
<path d="M18.3056 4.61006V1.97559C11.7686 2.19941 6.06478 5.5697 2.82812 10.5368L5.23369 11.8547C7.98731 7.6738 12.7939 4.83128 18.3056 4.61006Z" fill="#EF7A47"/>
<path d="M34.1539 9.87984L36.5595 8.56198C33.3235 3.59411 27.619 0.223825 21.082 0V2.63447C26.5935 2.85569 31.3999 5.69822 34.1539 9.87984Z" fill="#EF7A47"/>
<path d="M35.0047 29.6866L32.5985 28.3682C29.8206 32.4143 25.0956 35.1497 19.6934 35.3659V38.0002C26.1212 37.7802 31.7416 34.5175 35.0047 29.6866Z" fill="#EF7A47"/>
<path d="M33.4502 13.0023C34.5816 15.1003 35.2242 17.4734 35.2242 19.9885C35.2242 22.6075 34.5294 25.0747 33.3086 27.2358L35.7149 28.5543C37.1716 26.0048 37.9998 23.086 37.9998 19.9885C37.9998 16.9945 37.2229 14.1714 35.8559 11.6836L33.4502 13.0023Z" fill="#EF7A47"/>
<path d="M4.69161 27.2358C3.47149 25.0735 2.7764 22.6063 2.7764 19.9885C2.7764 17.4734 3.41926 15.1003 4.55063 13.0015L2.14428 11.6831C0.77755 14.1708 0 16.994 0 19.9874C0 23.0854 0.82834 26.0035 2.28526 28.5531L4.69161 27.2358Z" fill="#EF7A47"/>
<path d="M18.3066 38.0002V35.3659C12.9048 35.1491 8.18002 32.4143 5.40166 28.3682L2.99609 29.6866C6.25866 34.5175 11.8794 37.7802 18.3066 38.0002Z" fill="#EF7A47"/>
<path d="M18.3063 5.35107C13.0576 5.57105 8.49154 8.27719 5.88086 12.2591L18.3063 19.0664V5.35107ZM10.6506 12.6667C9.78039 12.6667 9.07431 11.9969 9.07431 11.171C9.07431 10.3445 9.78026 9.67467 10.6506 9.67467C11.5216 9.67467 12.2276 10.3445 12.2276 11.171C12.2282 11.9976 11.5216 12.6667 10.6506 12.6667ZM15.3551 15.3987C14.7762 15.3987 14.3064 14.9537 14.3064 14.4038C14.3064 13.8539 14.7761 13.4085 15.3551 13.4085C15.9346 13.4085 16.4046 13.8539 16.4046 14.4038C16.404 14.9537 15.9346 15.3987 15.3551 15.3987ZM15.3133 11.6947C15.1138 11.4602 14.8874 11.3389 14.5841 11.2606C14.2801 11.1817 14.2198 10.8753 14.4152 10.6646C14.6449 10.4177 15.0371 10.3386 15.3634 10.4238C15.8349 10.546 16.2351 10.7808 16.5425 11.1422C16.9642 11.6362 15.6855 12.1314 15.3133 11.6947ZM15.8417 9.33173C15.2629 9.33173 14.7928 8.88669 14.7928 8.33632C14.7928 7.78644 15.2629 7.3414 15.8417 7.3414C16.4212 7.3414 16.8913 7.78644 16.8913 8.33632C16.8913 8.88656 16.4212 9.33173 15.8417 9.33173Z" fill="#EF7A47"/>
<path d="M34.4432 19.9887C34.4432 17.6211 33.8488 15.3877 32.7982 13.4087L20.3887 20.2073L32.6158 26.9066C33.781 24.8459 34.4432 22.4905 34.4432 19.9887ZM32.3467 15.7421C33.2442 15.7421 32.1834 16.3158 31.7841 16.3158C30.8881 16.3152 31.9481 15.7421 32.3467 15.7421ZM25.7991 21.1529C25.2202 21.1529 24.7504 20.7077 24.7504 20.1572C24.7504 19.6078 25.2202 19.1622 25.7991 19.1622C26.3793 19.1622 26.8484 19.6078 26.8484 20.1572C26.8482 20.7077 26.3792 21.1529 25.7991 21.1529ZM28.6832 19.1474C29.3386 19.1474 28.0888 19.6606 27.8122 19.6606C27.1574 19.6606 28.4073 19.1474 28.6832 19.1474ZM28.0792 22.4198C27.1723 22.4198 28.0602 21.6577 28.5896 21.6577C29.4973 21.6569 28.6079 22.4198 28.0792 22.4198ZM30.8433 24.9153C30.2632 24.9153 29.794 24.4703 29.794 23.9196C29.794 23.3704 30.2645 22.9253 30.8433 22.9253C31.4229 22.9253 31.8926 23.3704 31.8926 23.9196C31.8925 24.4703 31.4229 24.9153 30.8433 24.9153ZM31.3714 20.9817C30.5011 20.9817 29.7955 20.3121 29.7955 19.4864C29.7955 18.6599 30.5011 17.99 31.3714 17.99C32.2423 17.99 32.9487 18.6599 32.9487 19.4864C32.9473 20.3127 32.2416 20.9817 31.3714 20.9817Z" fill="#EF7A47"/>
<path d="M18.3072 34.6257V21.3481L6.09766 28.0371C8.74067 31.8433 13.2007 34.4108 18.3072 34.6257ZM16.0936 33.5645C15.1902 33.5645 16.1736 32.9041 16.6325 32.9041C17.536 32.9039 16.5526 33.5645 16.0936 33.5645ZM15.8426 24.9151C16.4221 24.9151 16.8921 25.3602 16.8921 25.9101C16.8921 26.4601 16.4221 26.9051 15.8426 26.9051C15.2637 26.9051 14.7937 26.4601 14.7937 25.9101C14.7937 25.3602 15.2637 24.9151 15.8426 24.9151ZM13.1444 27.2434C14.0525 27.2434 13.1862 28.0294 12.6409 28.0294C11.7336 28.0294 12.5992 27.2434 13.1444 27.2434ZM13.7789 28.5543C14.6502 28.5543 15.3559 29.2237 15.3559 30.0502C15.3559 30.8766 14.6502 31.5462 13.7789 31.5462C12.9086 31.5462 12.2026 30.876 12.2026 30.0502C12.2026 29.2236 12.9086 28.5543 13.7789 28.5543ZM9.30708 27.4067C9.88658 27.4067 10.3566 27.8517 10.3566 28.4017C10.3566 28.9516 9.88658 29.3968 9.30708 29.3968C8.72824 29.3968 8.25844 28.9516 8.25844 28.4017C8.25844 27.8524 8.72811 27.4067 9.30708 27.4067Z" fill="#EF7A47"/>
<path d="M31.9029 28.0371L19.6934 21.3481V34.6257C24.8008 34.4108 29.2609 31.8433 31.9029 28.0371ZM21.9492 32.5411C21.3702 32.5411 20.9005 32.0953 20.9005 31.5461C20.9005 30.9955 21.3702 30.5504 21.9492 30.5504C22.5287 30.5504 22.9991 30.9955 22.9991 31.5461C22.9991 32.0953 22.5287 32.5411 21.9492 32.5411ZM22.6588 28.4024C21.7886 28.4024 21.0816 27.7321 21.0816 26.9064C21.0816 26.0805 21.7871 25.4103 22.6588 25.4103C23.5298 25.4103 24.2355 26.0805 24.2355 26.9064C24.2355 27.7322 23.5299 28.4024 22.6588 28.4024ZM24.2538 30.6064C23.6011 30.6064 24.8536 30.0997 25.1268 30.0997C25.7781 30.0997 24.527 30.6064 24.2538 30.6064ZM28.217 29.5486C27.6373 29.5486 27.1677 29.1035 27.1677 28.5543C27.1677 28.0036 27.6381 27.5585 28.217 27.5585C28.7965 27.5585 29.2663 28.0036 29.2663 28.5543C29.2663 29.1035 28.7965 29.5486 28.217 29.5486Z" fill="#EF7A47"/>
<path d="M21.082 3.375V17.0903L33.5078 10.283C30.8975 6.30112 26.3317 3.59497 21.082 3.375ZM25.1034 5.35079C25.6837 5.35079 26.1527 5.79584 26.1527 6.34583C26.1527 6.89583 25.6837 7.34112 25.1034 7.34112C24.5246 7.34112 24.0548 6.89571 24.0548 6.34583C24.0543 5.79596 24.5238 5.35079 25.1034 5.35079ZM22.8544 4.41947C23.7621 4.41947 22.9344 5.2441 22.3624 5.2441C21.4547 5.2441 22.2823 4.41947 22.8544 4.41947ZM23.5267 13.7046C22.6565 13.7046 21.9495 13.0347 21.9495 12.2089C21.9495 11.383 22.6552 10.7132 23.5267 10.7132C24.3977 10.7132 25.1034 11.383 25.1034 12.2089C25.1034 13.0347 24.3979 13.7046 23.5267 13.7046ZM25.1427 9.26487C24.8783 9.46336 24.4642 9.51726 24.1776 9.33083C23.8813 9.13793 23.5098 9.09023 23.1643 9.02589C22.8741 8.97124 22.6023 8.75512 22.7433 8.44832C22.8775 8.15829 23.2936 7.98775 23.6135 8.04762C24.17 8.15246 24.7266 8.25605 25.2024 8.56607C25.4857 8.75003 25.3705 9.09446 25.1427 9.26487ZM26.009 11.5944C25.102 11.5944 25.9081 10.7481 26.4957 10.7481C27.4027 10.7473 26.5966 11.5944 26.009 11.5944ZM28.2173 10.2112C27.6377 10.2112 27.168 9.76618 27.168 9.21618C27.168 8.66618 27.6385 8.22089 28.2173 8.22089C28.7968 8.22089 29.2666 8.66631 29.2666 9.21618C29.2666 9.76606 28.7968 10.2112 28.2173 10.2112ZM30.0671 9.77848C29.4144 9.77848 30.667 9.27096 30.9402 9.27096C31.5928 9.27034 30.3402 9.77848 30.0671 9.77848Z" fill="#EF7A47"/>
</svg>
