<svg width="38" height="38" viewBox="0 0 38 38" fill="none" xmlns="http://www.w3.org/2000/svg">
<path d="M36.0996 2.30041L32.1988 5.89301L24.6609 7.28156C24.1408 7.37716 23.7662 7.79826 23.7662 8.28693C23.7662 9.79858 24.3197 11.1829 25.226 12.3153L25.0784 12.4512L23.5042 11.001C22.6347 10.2002 21.2248 10.2002 20.3554 11.001L18.7808 12.4512C17.9114 13.2521 17.9114 14.5506 18.7808 15.3514L20.3554 16.8014L20.2437 16.9039C18.5367 15.979 16.3102 16.1768 14.8449 17.5267C13.3794 18.8765 13.1646 20.9273 14.1688 22.4995L14.0575 22.6021L12.4832 21.1518C11.6135 20.351 10.2039 20.351 9.33417 21.1518L7.75992 22.6021C6.89046 23.4029 6.89046 24.7015 7.75992 25.5023L9.33417 26.9525L9.25183 27.0286C7.86864 26.1415 5.89343 25.4855 4.51662 25.9084C3.14328 26.415 2.75885 27.5482 3.09979 28.4895C3.4532 29.5384 4.67839 30.0153 5.68614 30.3125L0.326157 35.2494C-0.108719 35.6499 -0.108719 36.299 0.326157 36.6996C0.761032 37.1001 1.46582 37.1001 1.9007 36.6996L7.25111 31.7718C7.55205 32.7027 8.01997 33.7938 9.23994 34.1449C10.4541 34.5062 11.6938 33.8603 12.0582 32.8544C12.5044 31.5745 11.7898 29.7528 10.8264 28.4786L10.9087 28.4025L12.4832 29.8527C13.3527 30.6535 14.7626 30.6535 15.632 29.8527L17.2066 28.4025C18.076 27.6017 18.076 26.3034 17.2066 25.5023L15.6323 24.0523L15.7437 23.9498C17.4504 24.8748 19.6772 24.6769 21.1425 23.3271C22.608 21.9772 22.8228 19.9264 21.8186 18.3542L21.9299 18.2516L23.5042 19.7019C24.3736 20.5027 25.7835 20.5027 26.6529 19.7019L28.2275 18.2516C29.0969 17.4508 29.0969 16.1523 28.2275 15.3514L26.6529 13.9015L26.8005 13.7656C28.0303 14.6016 29.5344 15.1127 31.1771 15.1127C31.7074 15.1127 32.1648 14.768 32.2686 14.2887L33.7776 7.33924L37.6738 3.75064C38.1087 3.3501 38.1087 2.70095 37.6738 2.30041C37.239 1.89986 36.5345 1.89986 36.0996 2.30041V2.30041Z" fill="white"/>
</svg>
