<svg width="28" height="28" viewBox="0 0 28 28" fill="none" xmlns="http://www.w3.org/2000/svg">
<path d="M8.4 22.4C6.86 22.4 5.6 23.66 5.6 25.2C5.6 26.74 6.86 28 8.4 28C9.94 28 11.2 26.74 11.2 25.2C11.2 23.66 9.94 22.4 8.4 22.4ZM0 0V2.8H2.8L7.84 13.44L5.88 16.8C5.74 17.22 5.6 17.78 5.6 18.2C5.6 19.74 6.86 21 8.4 21H25.2V18.2H8.96C8.82 18.2 8.68 18.06 8.68 17.92V17.7799L9.94 15.3999H20.3C21.42 15.3999 22.26 14.8399 22.68 13.9999L27.72 4.9C28 4.62 28 4.48 28 4.2C28 3.36 27.44 2.8 26.6 2.8H5.88L4.62 0H0ZM22.4 22.4C20.86 22.4 19.6 23.66 19.6 25.2C19.6 26.74 20.86 28 22.4 28C23.94 28 25.2 26.74 25.2 25.2C25.2 23.66 23.94 22.4 22.4 22.4Z" fill="#EF7A47"/>
</svg>
