<svg width="38" height="38" viewBox="0 0 38 38" fill="none" xmlns="http://www.w3.org/2000/svg">
<path d="M37.4325 18.6865H0.567358C0.254429 18.6865 0 18.9136 0 19.1927C0 22.5798 1.09336 25.8569 3.16182 28.6699C5.29332 31.5683 8.30864 33.7456 11.882 34.9665C11.9469 34.9886 12.0151 34.9999 12.0849 34.9999H25.9151C25.9849 34.9999 26.0531 34.9886 26.118 34.9665C29.6914 33.7455 32.7067 31.5683 34.8382 28.6699C36.9066 25.857 38 22.5798 38 19.1927C37.9999 18.9136 37.7454 18.6865 37.4325 18.6865ZM6.94308 26.2704C6.79443 26.3718 6.6193 26.421 6.44557 26.421C6.19908 26.421 5.95562 26.3223 5.79424 26.1343C4.73706 24.9023 4.10049 23.4293 3.95373 21.8744C3.91578 21.472 4.25052 21.1183 4.70151 21.0844C5.15237 21.051 5.54889 21.3492 5.58696 21.7516C5.7075 23.0275 6.22921 24.2356 7.09563 25.2453C7.37074 25.566 7.30253 26.0249 6.94308 26.2704ZM10.3012 29.5402C10.1412 29.7408 9.88892 29.8481 9.63273 29.8481C9.47021 29.8481 9.30593 29.8049 9.16271 29.7148C9.12728 29.6925 8.2857 29.1573 7.45294 28.1096C7.19107 27.7801 7.27819 27.3238 7.64736 27.0903C8.01664 26.8568 8.52802 26.9344 8.79002 27.2638C9.44966 28.0937 10.1035 28.5173 10.1101 28.5215C10.4766 28.7563 10.5628 29.2122 10.3012 29.5402Z" fill="#EF7A47"/>
<path d="M18.6844 16.0468C16.4783 12.3119 25.8934 4.69729 18.6844 3C20.7196 6.42664 11.4517 14.3403 18.6844 16.0468Z" fill="#EF7A47"/>
<path d="M23.9381 16.2477C22.6069 13.6871 29.1832 8.88722 24.4342 7.53613C25.6631 9.88569 19.1735 14.8894 23.9381 16.2477Z" fill="#EF7A47"/>
</svg>
