<svg width="22" height="22" viewBox="0 0 22 22" fill="none" xmlns="http://www.w3.org/2000/svg">
<path d="M10.0948 2.92861C10.4547 2.16181 11.5453 2.16181 11.9053 2.92862L13.8634 7.10055C14.0051 7.40243 14.288 7.61382 14.6176 7.66418L19.0762 8.34538C19.8808 8.46831 20.2093 9.44968 19.6409 10.0323L16.3525 13.4027C16.1308 13.6299 16.0302 13.9488 16.0813 14.262L16.8488 18.9675C16.9832 19.7914 16.1086 20.4076 15.378 20.0037L11.4838 17.851C11.1827 17.6846 10.8173 17.6846 10.5162 17.851L6.62194 20.0037C5.89137 20.4076 5.0168 19.7914 5.15119 18.9675L5.91875 14.262C5.96985 13.9488 5.86921 13.6299 5.64755 13.4027L2.35908 10.0323C1.79067 9.44969 2.1192 8.46831 2.9238 8.34538L7.38235 7.66418C7.71201 7.61382 7.99487 7.40243 8.13656 7.10055L10.0948 2.92861Z" fill="#FAC917"/>
</svg>
