<svg width="38" height="38" viewBox="0 0 38 38" fill="none" xmlns="http://www.w3.org/2000/svg">
<g clip-path="url(#clip0)">
<path d="M2.25526 10.9154C4.02376 11.6419 6.39905 12.0414 8.94452 12.0414C11.4891 12.0414 13.8647 11.6419 15.6338 10.9154C17.2985 10.2329 17.889 9.4713 17.889 9.02686C17.889 8.58241 17.2985 7.82109 15.6338 7.13747C13.8647 6.4118 11.4891 6.01172 8.94452 6.01172C6.39905 6.01172 4.02376 6.4118 2.25526 7.13747C0.590851 7.82109 0 8.58241 0 9.02686C0 9.4713 0.590851 10.2329 2.25526 10.9154ZM8.94452 7.94576C10.399 7.94576 11.579 8.42963 11.579 9.02686C11.579 9.6235 10.399 10.1082 8.94452 10.1082C7.48914 10.1082 6.31004 9.6235 6.31004 9.02686C6.31004 8.42963 7.48914 7.94576 8.94452 7.94576Z" fill="white"/>
<path d="M2.25526 19.9417C4.02376 20.6676 6.39905 21.0668 8.94452 21.0668C11.4891 21.0668 13.8647 20.6676 15.6338 19.9417C17.2985 19.2583 17.889 18.4967 17.889 18.0523V12.2676C17.4736 12.5236 17.0031 12.761 16.4792 12.9756C14.4486 13.8091 11.7727 14.2677 8.94452 14.2677C6.11638 14.2677 3.44044 13.8091 1.40987 12.9756C0.885986 12.761 0.415451 12.5236 0 12.2676V18.0523C0 18.4967 0.590851 19.2583 2.25526 19.9417Z" fill="white"/>
<path d="M22.3666 10.9154C24.1351 11.6419 26.5104 12.0414 29.0558 12.0414C31.6004 12.0414 33.976 11.6419 35.7451 10.9154C37.4095 10.2329 38.0004 9.4713 38.0004 9.02686C38.0004 8.58241 37.4095 7.82109 35.7451 7.13747C33.976 6.4118 31.6004 6.01172 29.0558 6.01172C26.5104 6.01172 24.1351 6.4118 22.3666 7.13747C20.7019 7.82109 20.1113 8.58241 20.1113 9.02686C20.1113 9.4713 20.7019 10.2329 22.3666 10.9154ZM29.0558 7.94576C30.5104 7.94576 31.6903 8.42963 31.6903 9.02686C31.6903 9.6235 30.5104 10.1082 29.0558 10.1082C27.6005 10.1082 26.4214 9.6235 26.4214 9.02686C26.4214 8.42963 27.6005 7.94576 29.0558 7.94576Z" fill="white"/>
<path d="M29.0558 14.2677C26.2277 14.2677 23.5518 13.8091 21.5212 12.9756C20.9973 12.761 20.5268 12.5236 20.1113 12.2676V18.0523C20.1113 18.4967 20.7019 19.2583 22.3666 19.9417C24.1351 20.6676 26.5104 21.0668 29.0558 21.0668C31.6004 21.0668 33.976 20.6676 35.7451 19.9417C37.4095 19.2583 38.0004 18.4967 38.0004 18.0523V12.2676C37.5849 12.5236 37.1144 12.761 36.5905 12.9756C34.5599 13.8091 31.884 14.2677 29.0558 14.2677Z" fill="white"/>
<path d="M0.00390625 28.3268L37.9996 25.7364V23.5049L0.00390625 26.0953V28.3268Z" fill="white"/>
<path d="M0.00390625 29.8506H37.9996V32.0769H0.00390625V29.8506Z" fill="white"/>
</g>
<defs>
<clipPath id="clip0">
<rect width="38" height="38" fill="white"/>
</clipPath>
</defs>
</svg>
